# xmcd
#
# Track frame offsets:
#	150
#	56450
#	86220
#	138197
#	168460
#	199845
#	246075
#
# Disc length: 3637 seconds
#
# Revision: 1
# Processed by: cddbd v1.5.1PL0 Copyright (c) Steve Scherf et al.
# Submitted via: CDex 1.50Beta5
#
DISCID=5c0e3307
DTITLE=ウラディーミル・アシュケナージ、他 - アシュケナージ・パールマン・ハレル ベートーヴェン「大公」&「幽霊」
DYEAR=1982
DGENRE=Classical
TTITLE0=ピアノ三重奏曲 第7番 変ロ長調 作品97「大公」 第1楽章:アレグロ・モデラート
TTITLE1=ピアノ三重奏曲 第7番 変ロ長調 作品97「大公」 第2楽章:スケルツォ(アレグロ)&トリオ
TTITLE2=ピアノ三重奏曲 第7番 変ロ長調 作品97「大公」 第3楽章:アンダンテ・カンタービレ
TTITLE3=ピアノ三重奏曲 第7番 変ロ長調 作品97「大公」 第4楽章:アレグロ・モデラート
TTITLE4=ピアノ三重奏曲 第5番 ニ長調 作品70-1「幽霊」第1楽章:アレグロ・ヴィヴァーチェ・エ・コン・ブリオ
TTITLE5=ピアノ三重奏曲 第5番 ニ長調 作品70-1「幽霊」第2楽章:ラルゴ・アッサイ・エド・エスプレッシーヴォ
TTITLE6=ピアノ三重奏曲 第5番 ニ長調 作品70-1「幽霊」第3楽章:プレスト
EXTD=
EXTT0=
EXTT1=
EXTT2=
EXTT3=
EXTT4=
EXTT5=
EXTT6=
PLAYORDER=
